<svg xmlns="http://www.w3.org/2000/svg" width="680" viewBox="0 0 680 315" font-family="-apple-system, Segoe UI, Helvetica, Arial, sans-serif" role="img">
<title>算子的逻辑层与硬件 kernel 层</title>
<rect x="0" y="0" width="680" height="315" fill="#ffffff"/>

<rect x="190" y="35" width="300" height="58" rx="8" fill="#EEEDFE" stroke="#534AB7" stroke-width="0.8"/>
<text x="340" y="62" text-anchor="middle" font-size="14" font-weight="500" fill="#26215C">逻辑算子（计算图节点）</text>
<text x="340" y="82" text-anchor="middle" font-size="12" fill="#534AB7">MatMul · Softmax · LayerNorm · Attention</text>

<path d="M340,93 L340,126" fill="none" stroke="#888780" stroke-width="1.5"/>
<path d="M340,128 l-4,-9 l8,0 z" fill="#888780"/>

<rect x="240" y="130" width="200" height="48" rx="8" fill="#F1EFE8" stroke="#5F5E5A" stroke-width="0.8"/>
<text x="340" y="152" text-anchor="middle" font-size="14" font-weight="500" fill="#2C2C2A">算子分发 dispatch</text>
<text x="340" y="170" text-anchor="middle" font-size="12" fill="#5F5E5A">按 device / dtype 派发</text>

<path d="M340,178 L95,231" fill="none" stroke="#888780" stroke-width="1.5"/>
<path d="M95,233 l1,-9 l6,4 z" fill="#888780"/>
<path d="M340,178 L255,231" fill="none" stroke="#888780" stroke-width="1.5"/>
<path d="M255,233 l-1,-9 l6,2 z" fill="#888780"/>
<path d="M340,178 L415,231" fill="none" stroke="#888780" stroke-width="1.5"/>
<path d="M415,233 l-5,-7 l6,-1 z" fill="#888780"/>
<path d="M340,178 L575,231" fill="none" stroke="#888780" stroke-width="1.5"/>
<path d="M575,233 l-6,-6 l5,-3 z" fill="#888780"/>

<rect x="25" y="235" width="140" height="62" rx="8" fill="#E6F1FB" stroke="#185FA5" stroke-width="0.8"/>
<text x="95" y="262" text-anchor="middle" font-size="14" font-weight="500" fill="#0C447C">CPU</text>
<text x="95" y="282" text-anchor="middle" font-size="12" fill="#185FA5">oneDNN · AVX</text>
<rect x="185" y="235" width="140" height="62" rx="8" fill="#E6F1FB" stroke="#185FA5" stroke-width="0.8"/>
<text x="255" y="262" text-anchor="middle" font-size="14" font-weight="500" fill="#0C447C">NVIDIA GPU</text>
<text x="255" y="282" text-anchor="middle" font-size="12" fill="#185FA5">CUDA · Triton</text>
<rect x="345" y="235" width="140" height="62" rx="8" fill="#E6F1FB" stroke="#185FA5" stroke-width="0.8"/>
<text x="415" y="262" text-anchor="middle" font-size="14" font-weight="500" fill="#0C447C">AMD GPU</text>
<text x="415" y="282" text-anchor="middle" font-size="12" fill="#185FA5">ROCm · HIP</text>
<rect x="505" y="235" width="140" height="62" rx="8" fill="#E6F1FB" stroke="#185FA5" stroke-width="0.8"/>
<text x="575" y="262" text-anchor="middle" font-size="14" font-weight="500" fill="#0C447C">TPU</text>
<text x="575" y="282" text-anchor="middle" font-size="12" fill="#185FA5">XLA</text>
</svg>
